<svg width="134" height="78" viewBox="0 0 134 78" fill="none" xmlns="http://www.w3.org/2000/svg">
<g clip-path="url(#clip0_4_2)">
<rect width="134" height="78" fill="white"/>
<path d="M17.7045 33H11.517V15.5455H17.7557C19.5114 15.5455 21.0227 15.8949 22.2898 16.5938C23.5568 17.2869 24.5313 18.2841 25.2131 19.5852C25.9006 20.8864 26.2443 22.4432 26.2443 24.2557C26.2443 26.0739 25.9006 27.6364 25.2131 28.9432C24.5313 30.25 23.5511 31.2528 22.2727 31.9517C21 32.6506 19.4773 33 17.7045 33ZM15.2074 29.8381H17.5511C18.642 29.8381 19.5597 29.6449 20.304 29.2585C21.054 28.8665 21.6165 28.2614 21.9915 27.4432C22.3722 26.6193 22.5625 25.5568 22.5625 24.2557C22.5625 22.9659 22.3722 21.9119 21.9915 21.0938C21.6165 20.2756 21.0568 19.6733 20.3125 19.2869C19.5682 18.9006 18.6506 18.7074 17.5597 18.7074H15.2074V29.8381ZM32.6428 33.2472C31.8075 33.2472 31.0632 33.1023 30.4098 32.8125C29.7564 32.517 29.2393 32.0824 28.8587 31.5085C28.4837 30.929 28.2962 30.2074 28.2962 29.3438C28.2962 28.6165 28.4297 28.0057 28.6967 27.5114C28.9638 27.017 29.3274 26.6193 29.7876 26.3182C30.2479 26.017 30.7706 25.7898 31.3558 25.6364C31.9467 25.483 32.5661 25.375 33.2138 25.3125C33.9751 25.233 34.5888 25.1591 35.0547 25.0909C35.5206 25.017 35.8587 24.9091 36.0689 24.767C36.2791 24.625 36.3842 24.4148 36.3842 24.1364V24.0852C36.3842 23.5455 36.2138 23.1278 35.8729 22.8324C35.5376 22.5369 35.0604 22.3892 34.4411 22.3892C33.7876 22.3892 33.2678 22.5341 32.8814 22.8239C32.495 23.108 32.2393 23.4659 32.1143 23.8977L28.7564 23.625C28.9268 22.8295 29.2621 22.142 29.7621 21.5625C30.2621 20.9773 30.907 20.5284 31.6967 20.2159C32.4922 19.8977 33.4126 19.7386 34.4581 19.7386C35.1854 19.7386 35.8814 19.8239 36.5462 19.9943C37.2166 20.1648 37.8104 20.429 38.3274 20.7869C38.8501 21.1449 39.2621 21.6051 39.5632 22.1676C39.8643 22.7244 40.0149 23.392 40.0149 24.1705V33H36.5717V31.1847H36.4695C36.2592 31.5938 35.978 31.9545 35.6257 32.267C35.2734 32.5739 34.8501 32.8153 34.3558 32.9915C33.8615 33.1619 33.2905 33.2472 32.6428 33.2472ZM33.6825 30.7415C34.2166 30.7415 34.6882 30.6364 35.0973 30.4261C35.5064 30.2102 35.8274 29.9205 36.0604 29.5568C36.2933 29.1932 36.4098 28.7812 36.4098 28.321V26.9318C36.2962 27.0057 36.1399 27.0739 35.9411 27.1364C35.7479 27.1932 35.5291 27.2472 35.2848 27.2983C35.0405 27.3437 34.7962 27.3864 34.5518 27.4261C34.3075 27.4602 34.0859 27.4915 33.8871 27.5199C33.4609 27.5824 33.0888 27.6818 32.7706 27.8182C32.4524 27.9545 32.2053 28.1392 32.0291 28.3722C31.853 28.5994 31.7649 28.8835 31.7649 29.2244C31.7649 29.7188 31.9439 30.0966 32.3018 30.358C32.6655 30.6136 33.1257 30.7415 33.6825 30.7415ZM42.8317 33V19.9091H46.3516V22.1932H46.4879C46.7266 21.3807 47.1271 20.767 47.6896 20.3523C48.2521 19.9318 48.8999 19.7216 49.6328 19.7216C49.8146 19.7216 50.0107 19.733 50.2209 19.7557C50.4311 19.7784 50.6158 19.8097 50.7749 19.8494V23.071C50.6044 23.0199 50.3686 22.9744 50.0675 22.9347C49.7663 22.8949 49.4908 22.875 49.2408 22.875C48.7067 22.875 48.2294 22.9915 47.8089 23.2244C47.3942 23.4517 47.0646 23.7699 46.8203 24.179C46.5817 24.5881 46.4624 25.0597 46.4624 25.5938V33H42.8317ZM60.2713 19.9091V22.6364H52.3878V19.9091H60.2713ZM54.1776 16.7727H57.8082V28.9773C57.8082 29.3125 57.8594 29.5739 57.9616 29.7614C58.0639 29.9432 58.206 30.071 58.3878 30.1449C58.5753 30.2187 58.7912 30.2557 59.0355 30.2557C59.206 30.2557 59.3764 30.2415 59.5469 30.2131C59.7173 30.179 59.848 30.1534 59.9389 30.1364L60.5099 32.8381C60.3281 32.8949 60.0724 32.9602 59.7429 33.0341C59.4134 33.1136 59.0128 33.1619 58.5412 33.179C57.6662 33.2131 56.8991 33.0966 56.2401 32.8295C55.5866 32.5625 55.0781 32.1477 54.7145 31.5852C54.3509 31.0227 54.1719 30.3125 54.1776 29.4545V16.7727ZM66.5483 25.4318V33H62.9176V15.5455H66.446V22.2188H66.5994C66.8949 21.446 67.3722 20.8409 68.0312 20.4034C68.6903 19.9602 69.517 19.7386 70.5114 19.7386C71.4205 19.7386 72.2131 19.9375 72.8892 20.3352C73.571 20.7273 74.0994 21.2926 74.4744 22.0312C74.8551 22.7642 75.0426 23.642 75.0369 24.6648V33H71.4062V25.3125C71.4119 24.5057 71.2074 23.8778 70.7926 23.429C70.3835 22.9801 69.8097 22.7557 69.071 22.7557C68.5767 22.7557 68.1392 22.8608 67.7585 23.071C67.3835 23.2812 67.0881 23.5881 66.8722 23.9915C66.6619 24.3892 66.554 24.8693 66.5483 25.4318ZM14.6705 44.5455L18.8892 57.8068H19.0511L23.2784 44.5455H27.3693L21.3523 62H16.5966L10.571 44.5455H14.6705ZM31.6818 62.2472C30.8466 62.2472 30.1023 62.1023 29.4489 61.8125C28.7955 61.517 28.2784 61.0824 27.8977 60.5085C27.5227 59.929 27.3352 59.2074 27.3352 58.3438C27.3352 57.6165 27.4688 57.0057 27.7358 56.5114C28.0028 56.017 28.3665 55.6193 28.8267 55.3182C29.2869 55.017 29.8097 54.7898 30.3949 54.6364C30.9858 54.483 31.6051 54.375 32.2528 54.3125C33.0142 54.233 33.6278 54.1591 34.0938 54.0909C34.5597 54.017 34.8977 53.9091 35.108 53.767C35.3182 53.625 35.4233 53.4148 35.4233 53.1364V53.0852C35.4233 52.5455 35.2528 52.1278 34.9119 51.8324C34.5767 51.5369 34.0994 51.3892 33.4801 51.3892C32.8267 51.3892 32.3068 51.5341 31.9205 51.8239C31.5341 52.108 31.2784 52.4659 31.1534 52.8977L27.7955 52.625C27.9659 51.8295 28.3011 51.142 28.8011 50.5625C29.3011 49.9773 29.946 49.5284 30.7358 49.2159C31.5313 48.8977 32.4517 48.7386 33.4972 48.7386C34.2244 48.7386 34.9205 48.8239 35.5852 48.9943C36.2557 49.1648 36.8494 49.429 37.3665 49.7869C37.8892 50.1449 38.3011 50.6051 38.6023 51.1676C38.9034 51.7244 39.054 52.392 39.054 53.1705V62H35.6108V60.1847H35.5085C35.2983 60.5938 35.017 60.9545 34.6648 61.267C34.3125 61.5739 33.8892 61.8153 33.3949 61.9915C32.9006 62.1619 32.3295 62.2472 31.6818 62.2472ZM32.7216 59.7415C33.2557 59.7415 33.7273 59.6364 34.1364 59.4261C34.5455 59.2102 34.8665 58.9205 35.0994 58.5568C35.3324 58.1932 35.4489 57.7812 35.4489 57.321V55.9318C35.3352 56.0057 35.179 56.0739 34.9801 56.1364C34.7869 56.1932 34.5682 56.2472 34.3239 56.2983C34.0795 56.3437 33.8352 56.3864 33.5909 56.4261C33.3466 56.4602 33.125 56.4915 32.9261 56.5199C32.5 56.5824 32.1278 56.6818 31.8097 56.8182C31.4915 56.9545 31.2443 57.1392 31.0682 57.3722C30.892 57.5994 30.804 57.8835 30.804 58.2244C30.804 58.7188 30.983 59.0966 31.3409 59.358C31.7045 59.6136 32.1648 59.7415 32.7216 59.7415ZM46.6946 62.2131C45.7003 62.2131 44.7997 61.9574 43.9929 61.446C43.1918 60.929 42.5554 60.1705 42.0838 59.1705C41.6179 58.1648 41.3849 56.9318 41.3849 55.4716C41.3849 53.9716 41.6264 52.7244 42.1094 51.7301C42.5923 50.7301 43.2344 49.983 44.0355 49.4886C44.8423 48.9886 45.7259 48.7386 46.6861 48.7386C47.419 48.7386 48.0298 48.8636 48.5185 49.1136C49.0128 49.358 49.4105 49.6648 49.7116 50.0341C50.0185 50.3977 50.2514 50.7557 50.4105 51.108H50.5213V44.5455H54.1435V62H50.5639V59.9034H50.4105C50.2401 60.267 49.9986 60.6278 49.6861 60.9858C49.3793 61.3381 48.9787 61.6307 48.4844 61.8636C47.9957 62.0966 47.3991 62.2131 46.6946 62.2131ZM47.8452 59.3239C48.4304 59.3239 48.9247 59.1648 49.3281 58.8466C49.7372 58.5227 50.0497 58.071 50.2656 57.4915C50.4872 56.9119 50.598 56.233 50.598 55.4545C50.598 54.6761 50.4901 54 50.2741 53.4261C50.0582 52.8523 49.7457 52.4091 49.3366 52.0966C48.9276 51.7841 48.4304 51.6278 47.8452 51.6278C47.2486 51.6278 46.7457 51.7898 46.3366 52.1136C45.9276 52.4375 45.6179 52.8864 45.4077 53.4602C45.1974 54.0341 45.0923 54.6989 45.0923 55.4545C45.0923 56.2159 45.1974 56.8892 45.4077 57.4744C45.6236 58.054 45.9332 58.5085 46.3366 58.8381C46.7457 59.1619 47.2486 59.3239 47.8452 59.3239ZM63.0945 62.2557C61.7479 62.2557 60.5888 61.983 59.6172 61.4375C58.6513 60.8864 57.907 60.108 57.3842 59.1023C56.8615 58.0909 56.6001 56.8949 56.6001 55.5142C56.6001 54.1676 56.8615 52.9858 57.3842 51.9688C57.907 50.9517 58.6428 50.1591 59.5916 49.5909C60.5462 49.0227 61.6655 48.7386 62.9496 48.7386C63.8132 48.7386 64.6172 48.8778 65.3615 49.1562C66.1115 49.429 66.7649 49.8409 67.3217 50.392C67.8842 50.9432 68.3217 51.6364 68.6342 52.4716C68.9467 53.3011 69.103 54.2727 69.103 55.3864V56.3835H58.049V54.1335H65.6854C65.6854 53.6108 65.5717 53.1477 65.3445 52.7443C65.1172 52.3409 64.8018 52.0256 64.3984 51.7983C64.0007 51.5653 63.5376 51.4489 63.0092 51.4489C62.4581 51.4489 61.9695 51.5767 61.5433 51.8324C61.1229 52.0824 60.7933 52.4205 60.5547 52.8466C60.3161 53.267 60.1939 53.7358 60.1882 54.2528V56.392C60.1882 57.0398 60.3075 57.5994 60.5462 58.071C60.7905 58.5426 61.1342 58.9062 61.5774 59.1619C62.0206 59.4176 62.5462 59.5455 63.1541 59.5455C63.5575 59.5455 63.9268 59.4886 64.2621 59.375C64.5973 59.2614 64.8842 59.0909 65.1229 58.8636C65.3615 58.6364 65.5433 58.358 65.6683 58.0284L69.0263 58.25C68.8558 59.0568 68.5064 59.7614 67.978 60.3636C67.4553 60.9602 66.7791 61.4261 65.9496 61.7614C65.1257 62.0909 64.174 62.2557 63.0945 62.2557ZM71.4723 62V48.9091H74.9922V51.1932H75.1286C75.3672 50.3807 75.7678 49.767 76.3303 49.3523C76.8928 48.9318 77.5405 48.7216 78.2734 48.7216C78.4553 48.7216 78.6513 48.733 78.8615 48.7557C79.0717 48.7784 79.2564 48.8097 79.4155 48.8494V52.071C79.245 52.0199 79.0092 51.9744 78.7081 51.9347C78.407 51.8949 78.1314 51.875 77.8814 51.875C77.3473 51.875 76.87 51.9915 76.4496 52.2244C76.0348 52.4517 75.7053 52.7699 75.4609 53.179C75.2223 53.5881 75.103 54.0597 75.103 54.5938V62H71.4723Z" fill="black"/>
</g>
<defs>
<clipPath id="clip0_4_2">
<rect width="134" height="78" fill="white"/>
</clipPath>
</defs>
</svg>
