<svg  viewBox="0 0 112 112" fill="none" xmlns="http://www.w3.org/2000/svg">
<g clip-path="url(#clip0_12_3)">
<path class="camera" fill-rule="evenodd" clip-rule="evenodd" d="M18.2453 43.4857H72.7119C77.768 43.4857 81.8916 47.1224 81.8916 51.5612V86.6706C81.8916 91.1094 77.7576 94.7461 72.7119 94.7461H55.886L68.1014 111.991H56.7253L43.4013 96.2318L29.9426 111.991H18.4007L30.5436 94.7461H18.2453C13.1996 94.7461 9.06568 91.1094 9.06568 86.6706V51.5612C9.06568 47.1224 13.1893 43.4857 18.2453 43.4857ZM18.4733 8.40365C23.5708 8.40365 28.1917 10.2266 31.5382 13.1615C34.8847 16.1055 36.9465 20.1706 36.9465 24.6549C36.9465 29.1393 34.8744 33.2044 31.5382 36.1484C28.1917 39.0924 23.5708 40.9063 18.4733 40.9063C13.3758 40.9063 8.75486 39.0833 5.40833 36.1484C2.07216 33.2135 0 29.1484 0 24.6641C0 20.1797 2.07216 16.1146 5.40833 13.1706C8.7445 10.2266 13.3758 8.40365 18.4733 8.40365ZM25.8294 18.1927C23.9438 16.5339 21.3432 15.513 18.4733 15.513C15.6033 15.513 13.0028 16.5339 11.1171 18.1927C9.23145 19.8516 8.07105 22.1393 8.07105 24.6641C8.07105 27.1888 9.23145 29.4766 11.1171 31.1354C13.0028 32.7943 15.6033 33.8151 18.4733 33.8151C21.3432 33.8151 23.9438 32.7943 25.8294 31.1354C27.7151 29.4766 28.8755 27.1888 28.8755 24.6641C28.8858 22.1393 27.7151 19.8424 25.8294 18.1927ZM62.807 0C69.2307 0 75.0431 2.28776 79.2496 5.98828C83.4561 9.6888 86.0566 14.8021 86.0566 20.4531C86.0566 26.1042 83.4561 31.2175 79.2496 34.918C75.0431 38.6185 69.2307 40.9063 62.807 40.9063C56.3833 40.9063 50.571 38.6185 46.3645 34.918C42.158 31.2175 39.5574 26.1042 39.5574 20.4531C39.5574 14.8021 42.158 9.6888 46.3645 5.98828C50.571 2.28776 56.3833 0 62.807 0ZM73.4372 11.1107C70.7227 8.72266 66.9617 7.23698 62.807 7.23698C58.6524 7.23698 54.9018 8.71354 52.1769 11.1107C49.4624 13.4987 47.7735 16.8073 47.7735 20.4622C47.7735 24.1172 49.452 27.4167 52.1769 29.8138C54.8914 32.2018 58.6524 33.6875 62.807 33.6875C66.9617 33.6875 70.7123 32.2109 73.4372 29.8138C76.1621 27.4167 77.8405 24.1172 77.8405 20.4622C77.8405 16.8073 76.1517 13.4987 73.4372 11.1107ZM87.1031 82.0039V56.0729L111.99 43.1667V95.2565L87.1031 82.0039Z" fill="black"/>
<path d="M33.5909 55.7273V79H30.7727V58.6818H30.6364L24.9545 62.4545V59.5909L30.7727 55.7273H33.5909ZM47.1364 70.5341L45.6307 70.9602C45.536 70.7093 45.3963 70.4654 45.2116 70.2287C45.0317 69.9872 44.7855 69.7884 44.473 69.6321C44.1605 69.4759 43.7604 69.3977 43.2727 69.3977C42.6051 69.3977 42.0488 69.5516 41.6037 69.8594C41.1634 70.1624 40.9432 70.5483 40.9432 71.017C40.9432 71.4337 41.0947 71.7628 41.3977 72.0043C41.7008 72.2457 42.1742 72.447 42.8182 72.608L44.4375 73.0057C45.4129 73.2424 46.1397 73.6046 46.6179 74.0923C47.0961 74.5753 47.3352 75.1979 47.3352 75.9602C47.3352 76.5852 47.1553 77.1439 46.7955 77.6364C46.4403 78.1288 45.9432 78.517 45.304 78.8011C44.6648 79.0852 43.9214 79.2273 43.0739 79.2273C41.9612 79.2273 41.0402 78.9858 40.3111 78.5028C39.5819 78.0199 39.1203 77.3144 38.9261 76.3864L40.517 75.9886C40.6686 76.5758 40.955 77.0161 41.3764 77.3097C41.8026 77.6032 42.3589 77.75 43.0455 77.75C43.8267 77.75 44.447 77.5843 44.9062 77.2528C45.3703 76.9167 45.6023 76.5142 45.6023 76.0455C45.6023 75.6667 45.4697 75.3494 45.2045 75.0938C44.9394 74.8333 44.5322 74.6392 43.983 74.5114L42.1648 74.0852C41.1657 73.8485 40.4318 73.4815 39.9631 72.9844C39.4991 72.4825 39.267 71.8551 39.267 71.1023C39.267 70.4867 39.4399 69.9422 39.7855 69.4688C40.1359 68.9953 40.6117 68.6236 41.2131 68.3537C41.8191 68.0838 42.5057 67.9489 43.2727 67.9489C44.3523 67.9489 45.1998 68.1856 45.8153 68.6591C46.4356 69.1326 46.8759 69.7576 47.1364 70.5341ZM54.6026 68.0909V69.5114H48.9492V68.0909H54.6026ZM50.5969 65.4773H52.2731V75.875C52.2731 76.3485 52.3417 76.7036 52.479 76.9403C52.6211 77.1723 52.801 77.3286 53.0188 77.4091C53.2414 77.4848 53.4757 77.5227 53.7219 77.5227C53.9066 77.5227 54.0581 77.5133 54.1765 77.4943C54.2949 77.4706 54.3896 77.4517 54.4606 77.4375L54.8015 78.9432C54.6879 78.9858 54.5292 79.0284 54.3256 79.071C54.122 79.1184 53.864 79.142 53.5515 79.142C53.078 79.142 52.614 79.0402 52.1594 78.8366C51.7096 78.633 51.3356 78.3229 51.0373 77.9062C50.7437 77.4896 50.5969 76.964 50.5969 76.3295V65.4773Z" fill="white"/>
</g>
<defs>
<clipPath id="clip0_12_3">
<rect fill="white"/>
</clipPath>
</defs>
</svg>
