<svg width="134" height="78" viewBox="0 0 134 78" fill="none" xmlns="http://www.w3.org/2000/svg">
<path d="M11.517 33V15.5455H15.2074V29.9574H22.6903V33H11.517ZM33.4609 27.4261V19.9091H37.0916V33H33.6058V30.6222H33.4695C33.174 31.3892 32.6825 32.0057 31.995 32.4716C31.3132 32.9375 30.4808 33.1705 29.4979 33.1705C28.6229 33.1705 27.853 32.9716 27.1882 32.5739C26.5234 32.1761 26.0036 31.6108 25.6286 30.8778C25.2592 30.1449 25.0717 29.267 25.0661 28.2443V19.9091H28.6967V27.5966C28.7024 28.3693 28.9098 28.9801 29.3189 29.429C29.728 29.8778 30.2763 30.1023 30.9638 30.1023C31.4013 30.1023 31.8104 30.0028 32.1911 29.804C32.5717 29.5994 32.8786 29.2983 33.1115 28.9006C33.3501 28.5028 33.4666 28.0114 33.4609 27.4261ZM43.2855 29.233L43.294 24.8778H43.8224L48.0156 19.9091H52.1832L46.5497 26.4886H45.6889L43.2855 29.233ZM39.9957 33V15.5455H43.6264V33H39.9957ZM48.1776 33L44.3253 27.2983L46.7457 24.733L52.4304 33H48.1776ZM59.3913 33.2557C58.0447 33.2557 56.8857 32.983 55.9141 32.4375C54.9482 31.8864 54.2038 31.108 53.6811 30.1023C53.1584 29.0909 52.897 27.8949 52.897 26.5142C52.897 25.1676 53.1584 23.9858 53.6811 22.9688C54.2038 21.9517 54.9396 21.1591 55.8885 20.5909C56.843 20.0227 57.9624 19.7386 59.2464 19.7386C60.1101 19.7386 60.9141 19.8778 61.6584 20.1562C62.4084 20.429 63.0618 20.8409 63.6186 21.392C64.1811 21.9432 64.6186 22.6364 64.9311 23.4716C65.2436 24.3011 65.3999 25.2727 65.3999 26.3864V27.3835H54.3459V25.1335H61.9822C61.9822 24.6108 61.8686 24.1477 61.6413 23.7443C61.4141 23.3409 61.0987 23.0256 60.6953 22.7983C60.2976 22.5653 59.8345 22.4489 59.3061 22.4489C58.755 22.4489 58.2663 22.5767 57.8402 22.8324C57.4197 23.0824 57.0902 23.4205 56.8516 23.8466C56.6129 24.267 56.4908 24.7358 56.4851 25.2528V27.392C56.4851 28.0398 56.6044 28.5994 56.843 29.071C57.0874 29.5426 57.4311 29.9062 57.8743 30.1619C58.3175 30.4176 58.843 30.5455 59.451 30.5455C59.8544 30.5455 60.2237 30.4886 60.5589 30.375C60.8942 30.2614 61.1811 30.0909 61.4197 29.8636C61.6584 29.6364 61.8402 29.358 61.9652 29.0284L65.3232 29.25C65.1527 30.0568 64.8033 30.7614 64.2749 31.3636C63.7521 31.9602 63.076 32.4261 62.2464 32.7614C61.4226 33.0909 60.4709 33.2557 59.3913 33.2557ZM20.9858 49.5653C20.9176 48.8778 20.625 48.3437 20.108 47.9631C19.5909 47.5824 18.8892 47.392 18.0028 47.392C17.4006 47.392 16.892 47.4773 16.4773 47.6477C16.0625 47.8125 15.7443 48.0426 15.5227 48.3381C15.3068 48.6335 15.1989 48.9688 15.1989 49.3438C15.1875 49.6562 15.2528 49.929 15.3949 50.1619C15.5426 50.3949 15.7443 50.5966 16 50.767C16.2557 50.9318 16.5511 51.0767 16.8864 51.2017C17.2216 51.321 17.5795 51.4233 17.9602 51.5085L19.5284 51.8835C20.2898 52.054 20.9886 52.2812 21.625 52.5653C22.2614 52.8494 22.8125 53.1989 23.2784 53.6136C23.7443 54.0284 24.1051 54.517 24.3608 55.0795C24.6222 55.642 24.7557 56.2869 24.7614 57.0142C24.7557 58.0824 24.483 59.0085 23.9432 59.7926C23.4091 60.571 22.6364 61.1761 21.625 61.608C20.6193 62.0341 19.4063 62.2472 17.9858 62.2472C16.5767 62.2472 15.3494 62.0312 14.304 61.5994C13.2642 61.1676 12.4517 60.5284 11.8665 59.6818C11.2869 58.8295 10.983 57.7756 10.9545 56.5199H14.5256C14.5653 57.1051 14.733 57.5937 15.0284 57.9858C15.3295 58.3722 15.7301 58.6648 16.2301 58.8636C16.7358 59.0568 17.3068 59.1534 17.9432 59.1534C18.5682 59.1534 19.1108 59.0625 19.571 58.8807C20.0369 58.6989 20.3977 58.446 20.6534 58.1222C20.9091 57.7983 21.0369 57.4261 21.0369 57.0057C21.0369 56.6136 20.9205 56.2841 20.6875 56.017C20.4602 55.75 20.125 55.5227 19.6818 55.3352C19.2443 55.1477 18.7074 54.9773 18.071 54.8239L16.1705 54.3466C14.6989 53.9886 13.5369 53.429 12.6847 52.6676C11.8324 51.9062 11.4091 50.8807 11.4148 49.5909C11.4091 48.5341 11.6903 47.6108 12.2585 46.821C12.8324 46.0312 13.6193 45.4148 14.6193 44.9716C15.6193 44.5284 16.7557 44.3068 18.0284 44.3068C19.3239 44.3068 20.4545 44.5284 21.4205 44.9716C22.392 45.4148 23.1477 46.0312 23.6875 46.821C24.2273 47.6108 24.5057 48.5256 24.5227 49.5653H20.9858ZM30.4652 58.233L30.4737 53.8778H31.0021L35.1953 48.9091H39.3629L33.7294 55.4886H32.8686L30.4652 58.233ZM27.1754 62V44.5455H30.8061V62H27.1754ZM35.3572 62L31.505 56.2983L33.9254 53.733L39.6101 62H35.3572ZM43.5966 66.9091C43.1364 66.9091 42.7045 66.8722 42.3011 66.7983C41.9034 66.7301 41.5739 66.642 41.3125 66.5341L42.1307 63.8239C42.5568 63.9545 42.9403 64.0256 43.2812 64.0369C43.6278 64.0483 43.9261 63.9688 44.1761 63.7983C44.4318 63.6278 44.6392 63.3381 44.7983 62.929L45.0114 62.375L40.3153 48.9091H44.1335L46.8438 58.5227H46.9801L49.7159 48.9091H53.5597L48.4716 63.4148C48.2273 64.1193 47.8949 64.733 47.4744 65.2557C47.0597 65.7841 46.5341 66.1903 45.8977 66.4744C45.2614 66.7642 44.4943 66.9091 43.5966 66.9091ZM58 62L54.4375 48.9091H58.1108L60.1392 57.7045H60.2585L62.3722 48.9091H65.9773L68.125 57.6534H68.2358L70.2301 48.9091H73.8949L70.3409 62H66.4972L64.2472 53.767H64.0852L61.8352 62H58ZM79.5646 62.2472C78.7294 62.2472 77.9851 62.1023 77.3317 61.8125C76.6783 61.517 76.1612 61.0824 75.7805 60.5085C75.4055 59.929 75.218 59.2074 75.218 58.3438C75.218 57.6165 75.3516 57.0057 75.6186 56.5114C75.8857 56.017 76.2493 55.6193 76.7095 55.3182C77.1697 55.017 77.6925 54.7898 78.2777 54.6364C78.8686 54.483 79.4879 54.375 80.1357 54.3125C80.897 54.233 81.5107 54.1591 81.9766 54.0909C82.4425 54.017 82.7805 53.9091 82.9908 53.767C83.201 53.625 83.3061 53.4148 83.3061 53.1364V53.0852C83.3061 52.5455 83.1357 52.1278 82.7947 51.8324C82.4595 51.5369 81.9822 51.3892 81.3629 51.3892C80.7095 51.3892 80.1896 51.5341 79.8033 51.8239C79.4169 52.108 79.1612 52.4659 79.0362 52.8977L75.6783 52.625C75.8487 51.8295 76.1839 51.142 76.6839 50.5625C77.1839 49.9773 77.8288 49.5284 78.6186 49.2159C79.4141 48.8977 80.3345 48.7386 81.38 48.7386C82.1072 48.7386 82.8033 48.8239 83.468 48.9943C84.1385 49.1648 84.7322 49.429 85.2493 49.7869C85.772 50.1449 86.1839 50.6051 86.4851 51.1676C86.7862 51.7244 86.9368 52.392 86.9368 53.1705V62H83.4936V60.1847H83.3913C83.1811 60.5938 82.8999 60.9545 82.5476 61.267C82.1953 61.5739 81.772 61.8153 81.2777 61.9915C80.7834 62.1619 80.2124 62.2472 79.5646 62.2472ZM80.6044 59.7415C81.1385 59.7415 81.6101 59.6364 82.0192 59.4261C82.4283 59.2102 82.7493 58.9205 82.9822 58.5568C83.2152 58.1932 83.3317 57.7812 83.3317 57.321V55.9318C83.218 56.0057 83.0618 56.0739 82.8629 56.1364C82.6697 56.1932 82.451 56.2472 82.2067 56.2983C81.9624 56.3437 81.718 56.3864 81.4737 56.4261C81.2294 56.4602 81.0078 56.4915 80.8089 56.5199C80.3828 56.5824 80.0107 56.6818 79.6925 56.8182C79.3743 56.9545 79.1271 57.1392 78.951 57.3722C78.7749 57.5994 78.6868 57.8835 78.6868 58.2244C78.6868 58.7188 78.8658 59.0966 79.2237 59.358C79.5874 59.6136 80.0476 59.7415 80.6044 59.7415ZM93.3842 44.5455V62H89.7536V44.5455H93.3842ZM99.5824 58.233L99.5909 53.8778H100.119L104.312 48.9091H108.48L102.847 55.4886H101.986L99.5824 58.233ZM96.2926 62V44.5455H99.9233V62H96.2926ZM104.474 62L100.622 56.2983L103.043 53.733L108.727 62H104.474ZM115.688 62.2557C114.342 62.2557 113.183 61.983 112.211 61.4375C111.245 60.8864 110.501 60.108 109.978 59.1023C109.455 58.0909 109.194 56.8949 109.194 55.5142C109.194 54.1676 109.455 52.9858 109.978 51.9688C110.501 50.9517 111.237 50.1591 112.185 49.5909C113.14 49.0227 114.259 48.7386 115.543 48.7386C116.407 48.7386 117.211 48.8778 117.955 49.1562C118.705 49.429 119.359 49.8409 119.915 50.392C120.478 50.9432 120.915 51.6364 121.228 52.4716C121.54 53.3011 121.697 54.2727 121.697 55.3864V56.3835H110.643V54.1335H118.279C118.279 53.6108 118.165 53.1477 117.938 52.7443C117.711 52.3409 117.396 52.0256 116.992 51.7983C116.594 51.5653 116.131 51.4489 115.603 51.4489C115.052 51.4489 114.563 51.5767 114.137 51.8324C113.717 52.0824 113.387 52.4205 113.148 52.8466C112.91 53.267 112.788 53.7358 112.782 54.2528V56.392C112.782 57.0398 112.901 57.5994 113.14 58.071C113.384 58.5426 113.728 58.9062 114.171 59.1619C114.614 59.4176 115.14 59.5455 115.748 59.5455C116.151 59.5455 116.521 59.4886 116.856 59.375C117.191 59.2614 117.478 59.0909 117.717 58.8636C117.955 58.6364 118.137 58.358 118.262 58.0284L121.62 58.25C121.45 59.0568 121.1 59.7614 120.572 60.3636C120.049 60.9602 119.373 61.4261 118.543 61.7614C117.719 62.0909 116.768 62.2557 115.688 62.2557Z" fill="black"/>
</svg>
