<svg width="112" height="112" viewBox="0 0 112 112" fill="none" xmlns="http://www.w3.org/2000/svg">
<g clip-path="url(#clip0_12_3)">
<path class="camera" fill-rule="evenodd" clip-rule="evenodd" d="M18.2453 43.4857H72.7119C77.768 43.4857 81.8916 47.1224 81.8916 51.5612V86.6706C81.8916 91.1094 77.7576 94.7461 72.7119 94.7461H55.886L68.1014 111.991H56.7253L43.4013 96.2318L29.9426 111.991H18.4007L30.5436 94.7461H18.2453C13.1996 94.7461 9.06568 91.1094 9.06568 86.6706V51.5612C9.06568 47.1224 13.1893 43.4857 18.2453 43.4857ZM18.4733 8.40365C23.5708 8.40365 28.1917 10.2266 31.5382 13.1615C34.8847 16.1055 36.9465 20.1706 36.9465 24.6549C36.9465 29.1393 34.8744 33.2044 31.5382 36.1484C28.1917 39.0924 23.5708 40.9063 18.4733 40.9063C13.3758 40.9063 8.75486 39.0833 5.40833 36.1484C2.07216 33.2135 0 29.1484 0 24.6641C0 20.1797 2.07216 16.1146 5.40833 13.1706C8.7445 10.2266 13.3758 8.40365 18.4733 8.40365ZM25.8294 18.1927C23.9438 16.5339 21.3432 15.513 18.4733 15.513C15.6033 15.513 13.0028 16.5339 11.1171 18.1927C9.23145 19.8516 8.07105 22.1393 8.07105 24.6641C8.07105 27.1888 9.23145 29.4766 11.1171 31.1354C13.0028 32.7943 15.6033 33.8151 18.4733 33.8151C21.3432 33.8151 23.9438 32.7943 25.8294 31.1354C27.7151 29.4766 28.8755 27.1888 28.8755 24.6641C28.8858 22.1393 27.7151 19.8424 25.8294 18.1927ZM62.807 0C69.2307 0 75.0431 2.28776 79.2496 5.98828C83.4561 9.6888 86.0566 14.8021 86.0566 20.4531C86.0566 26.1042 83.4561 31.2175 79.2496 34.918C75.0431 38.6185 69.2307 40.9063 62.807 40.9063C56.3834 40.9063 50.571 38.6185 46.3645 34.918C42.158 31.2175 39.5574 26.1042 39.5574 20.4531C39.5574 14.8021 42.158 9.6888 46.3645 5.98828C50.571 2.28776 56.3834 0 62.807 0ZM73.4372 11.1107C70.7227 8.72266 66.9617 7.23698 62.807 7.23698C58.6524 7.23698 54.9018 8.71354 52.1769 11.1107C49.4624 13.4987 47.7735 16.8073 47.7735 20.4622C47.7735 24.1172 49.452 27.4167 52.1769 29.8138C54.8914 32.2018 58.6524 33.6875 62.807 33.6875C66.9617 33.6875 70.7123 32.2109 73.4372 29.8138C76.1621 27.4167 77.8405 24.1172 77.8405 20.4622C77.8405 16.8073 76.1517 13.4987 73.4372 11.1107ZM87.1031 82.0039V56.0729L111.99 43.1667V95.2565L87.1031 82.0039Z" />
<path d="M36.5966 52.9091V82H29.5795V59.4716H29.4091L22.9034 63.4489V57.3693L30.0767 52.9091H36.5966ZM59.5078 74.4219L56.3189 74.5071C56.2857 74.2798 56.1958 74.0786 56.049 73.9034C55.9022 73.7235 55.7105 73.5838 55.4737 73.4844C55.2417 73.3802 54.9718 73.3281 54.6641 73.3281C54.2616 73.3281 53.9183 73.4086 53.6342 73.5696C53.3549 73.7306 53.2176 73.9484 53.2223 74.223C53.2176 74.4361 53.3028 74.6207 53.478 74.777C53.6579 74.9332 53.9775 75.0587 54.4368 75.1534L56.5391 75.5511C57.6281 75.7595 58.4377 76.1051 58.968 76.5881C59.5031 77.071 59.773 77.7102 59.7777 78.5057C59.773 79.2538 59.5504 79.9048 59.1101 80.4588C58.6745 81.0128 58.0779 81.4437 57.3203 81.7514C56.5627 82.0545 55.6963 82.206 54.7209 82.206C53.1631 82.206 51.9344 81.8864 51.0348 81.2472C50.1399 80.6032 49.6286 79.7415 49.5007 78.6619L52.9311 78.5767C53.0069 78.9744 53.2034 79.2775 53.5206 79.4858C53.8378 79.6941 54.2427 79.7983 54.7351 79.7983C55.1802 79.7983 55.5424 79.7154 55.8217 79.5497C56.1011 79.384 56.2431 79.1638 56.2479 78.8892C56.2431 78.643 56.1342 78.4465 55.9212 78.2997C55.7081 78.1482 55.3743 78.0298 54.9197 77.9446L53.0163 77.5824C51.9226 77.3835 51.1082 77.0166 50.5732 76.4815C50.0381 75.9418 49.773 75.2552 49.7777 74.4219C49.773 73.6927 49.9671 73.0701 50.3601 72.554C50.7531 72.0331 51.3118 71.6354 52.0362 71.3608C52.7607 71.0862 53.6153 70.9489 54.6001 70.9489C56.0774 70.9489 57.2422 71.259 58.0945 71.8793C58.9467 72.4948 59.4179 73.3423 59.5078 74.4219ZM67.6452 71.0909V73.6477H60.7631V71.0909H67.6452ZM62.2049 68.4773H65.6779V78.5696C65.6779 78.7827 65.7111 78.9555 65.7773 79.0881C65.8484 79.2159 65.9502 79.3082 66.0827 79.3651C66.2153 79.4171 66.3739 79.4432 66.5586 79.4432C66.6912 79.4432 66.8308 79.4313 66.9776 79.4077C67.1291 79.3793 67.2428 79.3556 67.3185 79.3366L67.8441 81.8438C67.6784 81.8911 67.444 81.9503 67.141 82.0213C66.8427 82.0923 66.4852 82.1373 66.0685 82.1562C65.2541 82.1941 64.5558 82.0994 63.9734 81.8722C63.3957 81.6402 62.953 81.2803 62.6452 80.7926C62.3422 80.3049 62.1954 79.6918 62.2049 78.9531V68.4773Z" 
fill="black"/>
</g>
<defs>
<clipPath id="clip0_12_3">
<rect width="112" height="112" fill="white"/>
</clipPath>
</defs>
</svg>
